<?xml version="1.0" encoding="iso-8859-1"?>
<!-- Generator: Adobe Illustrator 19.1.0, SVG Export Plug-In . SVG Version: 6.00 Build 0)  -->
<svg version="1.1" id="Capa_1" xmlns="http://www.w3.org/2000/svg" xmlns:xlink="http://www.w3.org/1999/xlink" x="0px" y="0px"
	 viewBox="0 0 537.6 537.6" style="enable-background:new 0 0 537.6 537.6;" xml:space="preserve">
<g>
	<g>
		<path fill="#fff" d="M503.16,117.835c0.42-1.262,0.84-1.682,0.84-3.364c0-7.149-5.46-11.774-12.6-11.774H462c-7.14,0-12.6,5.467-12.6,12.615
			c0,1.682,0.42,0,0.84,4.205h-60.06L371.7,81.67c-6.72-13.877-24.78-25.231-39.9-25.231h-126c-15.54,0-33.18,11.354-39.9,25.231
			l-18.48,37.846H130.2v-18.923c0-2.523-1.68-2.103-4.2-2.103H42c-2.52,0-4.2-0.421-4.2,2.103v16.821c-21,0-37.8,16.821-37.8,37.846
			v285.951c0,21.026,16.8,39.949,37.8,39.949h462c21,0,37.8-18.923,37.8-39.949V155.261
			C537.6,135.917,522.48,119.517,503.16,117.835z M201.6,94.706c0-2.523,1.68-4.205,4.2-4.205h126c2.52,0,4.2,1.682,4.2,4.205
			v16.821c0,2.523-1.68,4.205-4.2,4.205h-126c-2.52,0-4.2-1.682-4.2-4.205V94.706z M58.8,201.938c-13.86,0-25.2-11.354-25.2-25.231
			c0-13.877,11.34-25.231,25.2-25.231S84,162.83,84,176.707C84,190.584,72.66,201.938,58.8,201.938z M92.4,222.964
			c-7.14,0-12.6-5.467-12.6-12.615c0-7.149,5.46-12.615,12.6-12.615c7.14,0,12.6,5.467,12.6,12.615
			C105,217.497,99.54,222.964,92.4,222.964z M268.8,445.837c-81.06,0-147-66.021-147-147.181s65.94-147.181,147-147.181
			s147,66.021,147,147.181S349.86,445.837,268.8,445.837z"/>
		<path fill="#fff" d="M268.8,180.912c-64.68,0-117.6,52.985-117.6,117.745s52.92,117.745,117.6,117.745s117.6-52.985,117.6-117.745
			S333.48,180.912,268.8,180.912z M268.8,361.734c-34.86,0-63-28.175-63-63.077s28.14-63.077,63-63.077s63,28.175,63,63.077
			S303.66,361.734,268.8,361.734z"/>
	</g>
</g>
<g>
</g>
<g>
</g>
<g>
</g>
<g>
</g>
<g>
</g>
<g>
</g>
<g>
</g>
<g>
</g>
<g>
</g>
<g>
</g>
<g>
</g>
<g>
</g>
<g>
</g>
<g>
</g>
<g>
</g>
</svg>
